<svg width="28" height="28" viewBox="0 0 28 28" fill="none" xmlns="http://www.w3.org/2000/svg">
    <path d="M10.7919 11.375H9.77086C9.47913 11.375 9.42078 11.5123 9.42078 11.6637C9.42078 11.9341 9.76694 13.2752 11.0326 15.0488C11.8763 16.2601 13.0651 16.9167 14.1469 16.9167C14.7959 16.9167 14.8762 16.7708 14.8762 16.5196V15.6042C14.8762 15.3125 14.9377 15.2543 15.1432 15.2543C15.2947 15.2543 15.5543 15.33 16.1601 15.914C16.3662 16.12 16.521 16.2923 16.6472 16.4326C16.9447 16.7635 17.0825 16.9167 17.3559 16.9167H18.377C18.6688 16.9167 18.8146 16.7708 18.7305 16.483C18.6384 16.1962 18.3079 15.78 17.8693 15.2867C17.7486 15.1442 17.5973 14.996 17.4634 14.8649C17.3332 14.7374 17.2194 14.626 17.1661 14.5513C17.0147 14.3567 17.0579 14.2701 17.1661 14.0971C17.1661 14.0971 18.4101 12.3451 18.5399 11.7503C18.6048 11.5339 18.5399 11.375 18.2312 11.375H17.2101C16.9505 11.375 16.8308 11.5123 16.7658 11.6637C16.7658 11.6637 16.2466 12.9291 15.511 13.751C15.273 13.9889 15.1649 14.0646 15.035 14.0646C14.9701 14.0646 14.8762 13.9889 14.8762 13.7726V11.7503C14.8762 11.4907 14.8009 11.375 14.5845 11.375H12.9799C12.8177 11.375 12.7201 11.4955 12.7201 11.6096C12.7201 11.7036 12.7737 11.7699 12.8421 11.8546C12.9529 11.9916 13.1024 12.1767 13.1258 12.6046V14.1079C13.1258 14.4375 13.0663 14.4973 12.9365 14.4973C12.5903 14.4973 11.7483 13.2262 11.2489 11.7719C11.1511 11.4892 11.0529 11.375 10.7919 11.375Z" fill="#33363C"/>
    <path fill-rule="evenodd" clip-rule="evenodd" d="M14 0C21.732 0 28 6.26801 28 14C28 21.732 21.732 28 14 28C6.26801 28 0 21.732 0 14C0 6.26801 6.26801 0 14 0ZM7 13.7083C7 10.546 7 8.96482 7.98241 7.98241C8.96482 7 10.546 7 13.7083 7H14.2917C17.454 7 19.0352 7 20.0176 7.98241C21 8.96482 21 10.546 21 13.7083V14.2917C21 17.454 21 19.0352 20.0176 20.0176C19.0352 21 17.454 21 14.2917 21H13.7083C10.546 21 8.96482 21 7.98241 20.0176C7 19.0352 7 17.454 7 14.2917V13.7083Z" fill="#33363C"/>
</svg>